<svg width="16" height="21" viewBox="0 0 16 21" fill="none" xmlns="http://www.w3.org/2000/svg">
<g id="Frame" clip-path="url(#clip0_157_31)">
<path id="Vector" d="M7.90363 5.25C10.0241 5.25 12.1446 5.25 14.2651 5.25C14.8434 5.25 14.8434 5.44444 14.8434 5.83333C14.6506 7.97222 14.6506 9.72222 14.4578 11.6667C14.2651 13.0278 14.2651 14.3889 14.0723 15.5556C13.8795 17.1111 13.8795 18.6667 13.6868 20.2222C13.6868 20.6111 13.494 20.8056 13.1084 20.8056H12.9157C9.63857 20.8056 6.16869 20.8056 2.89158 20.8056C2.31326 20.8056 2.12049 20.6111 2.12049 20.0278C1.92772 17.6944 1.73495 15.3611 1.54218 12.8333C1.34941 10.5 1.15664 8.16667 0.963867 6.02778C0.963867 5.63889 1.15664 5.44444 1.54218 5.44444C3.66266 5.25 5.78314 5.25 7.90363 5.25ZM7.51808 13.2222C7.51808 15.1667 7.51808 16.9167 7.51808 18.8611V19.0556C7.51808 19.25 7.71085 19.4444 7.90363 19.4444C8.0964 19.4444 8.28917 19.25 8.28917 19.0556V18.8611C8.28917 15.1667 8.28917 11.2778 8.28917 7.58333V7.38889C8.28917 7.19444 8.0964 7 7.90363 7C7.71085 7 7.51808 7 7.51808 7.38889V7.58333C7.51808 9.52778 7.51808 11.2778 7.51808 13.2222ZM5.3976 18.8611C5.20483 17.5 5.20483 16.1389 5.01206 14.7778C4.81929 13.0278 4.81929 11.4722 4.62652 9.72222C4.62652 8.94444 4.43375 8.16667 4.43375 7.38889C4.43375 7.19444 4.24098 7 4.0482 7C3.85543 7 3.66266 7.19444 3.66266 7.58333C3.66266 8.94444 3.85543 10.3056 3.85543 11.6667C4.0482 13.4167 4.0482 15.1667 4.24098 16.9167C4.24098 17.5 4.43375 18.2778 4.43375 18.8611C4.43375 19.0556 4.62652 19.25 5.01206 19.25C5.20483 19.25 5.3976 19.0556 5.3976 18.8611ZM10.6024 18.8611C10.6024 19.25 10.7952 19.4444 10.988 19.4444C11.1807 19.4444 11.3735 19.25 11.3735 19.0556C11.5663 17.1111 11.759 15.5556 11.759 13.8056C11.9518 11.6667 12.1446 9.52778 12.3374 7.58333C12.3374 7.19444 12.1446 7 11.9518 7C11.759 7 11.5663 7.19444 11.3735 7.38889C11.3735 8.36111 11.1807 9.13889 11.1807 10.1111C11.1807 11.6667 10.988 13.2222 10.7952 14.7778C10.7952 16.1389 10.6024 17.5 10.6024 18.8611Z" fill="#65BD50"/>
<path id="Vector_2" d="M7.90367 4.47222C5.59041 4.47222 3.27716 4.47222 0.963908 4.47222C0.578366 4.47222 0.192823 4.27778 5.2359e-05 3.88889C-0.192719 3.30556 0.192823 2.72222 0.963908 2.72222C2.12053 2.72222 3.27716 2.72222 4.43379 2.72222C4.62656 2.72222 4.81933 2.72222 4.81933 2.72222C4.81933 2.72222 4.81933 2.52778 5.0121 2.33333C5.39764 0.972222 6.74704 0 8.09644 0C9.44584 0 10.7952 1.16667 10.988 2.52778C10.988 2.72222 11.1808 2.72222 11.1808 2.72222C12.5302 2.72222 13.6868 2.72222 15.0362 2.72222C15.4217 2.72222 15.6145 2.91667 15.8073 3.30556C16.0001 3.69444 16.0001 3.88889 15.6145 4.27778C15.4217 4.47222 15.229 4.47222 15.0362 4.47222C12.5302 4.47222 10.2169 4.47222 7.90367 4.47222ZM6.16873 2.72222C7.32535 2.72222 8.48198 2.72222 9.63861 2.72222C9.44584 1.94444 8.86752 1.16667 7.90367 1.36111C7.13258 1.36111 6.3615 1.94444 6.16873 2.72222Z" fill="#65BD50"/>
</g>
<defs>
<clipPath id="clip0_157_31">
<rect width="16" height="21" fill="white"/>
</clipPath>
</defs>
</svg>
